<svg width="64" height="64" viewBox="0 0 64 64" fill="none" xmlns="http://www.w3.org/2000/svg">
  <circle cx="32" cy="32" r="32" fill="#EBFFFB"/>
  <path d="M45.0014 17.1301H41.2834V15.2709C41.2834 14.7778 41.0872 14.3051 40.7391 13.9563C40.3901 13.6075 39.9173 13.4117 39.4245 13.4117C38.9308 13.4117 38.458 13.6075 38.1098 13.9563C37.9024 14.1637 37.7488 14.4148 37.6587 14.6882C37.5968 14.8745 37.5647 15.0711 37.5647 15.2709V17.1301H26.41V15.2709C26.41 14.7778 26.2138 14.3051 25.8656 13.9563C25.5167 13.6075 25.0439 13.4117 24.551 13.4117C24.0573 13.4117 23.5845 13.6075 23.2364 13.9563C22.8874 14.3051 22.6912 14.7778 22.6912 15.2709V17.1301H18.9733C17.4938 17.1301 16.0754 17.7177 15.0294 18.7637C13.9833 19.8098 13.3955 21.2284 13.3955 22.7077V45.018C13.3955 46.4973 13.9833 47.9159 15.0294 48.9619C16.0754 50.0078 17.4938 50.5956 18.9733 50.5956H31.5543C27.8002 47.9518 25.3478 43.5842 25.3478 38.6437C25.3478 30.576 31.8872 24.0358 39.9551 24.0358C44.1411 24.0358 47.9161 25.7964 50.5791 28.6175V22.7077C50.5791 21.2284 49.9914 19.8098 48.9453 18.7637C47.9 17.7177 46.4809 17.1301 45.0014 17.1301Z" fill="#0B3C49"/>
  <path fill-rule="evenodd" clip-rule="evenodd" d="M52.0932 39.0951C52.0932 45.4613 46.9327 50.6221 40.5662 50.6221C34.1997 50.6221 29.0392 45.4613 29.0392 39.0951C29.0392 32.729 34.1997 27.5682 40.5662 27.5682C46.9327 27.5682 52.0932 32.729 52.0932 39.0951ZM38.9195 32.5083V39.738L43.9457 44.8586L45.5063 43.2684L41.1339 38.8131V32.5083H38.9195Z" fill="#0B3C49"/>
</svg>
